<?xml version="1.0" encoding="UTF-8"?>
<svg id="Layer_2" data-name="Layer 2" xmlns="http://www.w3.org/2000/svg" xmlns:xlink="http://www.w3.org/1999/xlink" viewBox="0 0 729.28 133.24">
  <defs>
    <style>
      .cls-1 {
        fill: url(#linear-gradient-2);
      }

      .cls-2 {
        fill: #000;
      }
      @media (prefers-color-scheme: dark) { .cls-2 { fill: #fff } }

      .cls-3 {
        fill: url(#linear-gradient-3);
      }

      .cls-4 {
        fill: url(#linear-gradient);
      }
    </style>
    <linearGradient id="linear-gradient" x1="13.09" y1="4.21" x2="132.62" y2="99.02" gradientUnits="userSpaceOnUse">
      <stop offset="0" stop-color="#a32fe0"/>
      <stop offset="1" stop-color="#5945e3"/>
    </linearGradient>
    <linearGradient id="linear-gradient-2" x1="16.8" y1="-.46" x2="136.33" y2="94.34" xlink:href="#linear-gradient"/>
    <linearGradient id="linear-gradient-3" x1="-14.54" y1="39.05" x2="104.99" y2="133.85" xlink:href="#linear-gradient"/>
  </defs>
  <g id="Layer_1-2" data-name="Layer 1">
    <g>
      <path class="cls-2" d="m153.07,100.92c-11.81-10.37-14.95-23.87-14.95-35.56,0-8.2,2.53-22.42,14.11-33.03,8.68-7.95,20.13-12.78,38.09-12.78,7.48,0,11.94.48,17.48,1.2,4.58.6,8.44,1.69,12.05,2.05,1.32.12,1.8.72,1.8,1.45,0,.97-.36,2.41-.6,6.63-.24,3.98-.12,10.61-.36,13.02-.12,1.81-.36,2.77-1.45,2.77-.97,0-1.2-.96-1.2-2.65-.12-3.74-1.69-7.95-4.7-11.09-3.98-4.22-13.38-7.47-24.47-7.47-10.48,0-17.36,2.65-22.66,7.47-8.8,8.07-11.09,19.53-11.09,31.22,0,28.69,21.82,42.91,37.97,42.91,10.73,0,17.24-1.2,22.06-6.75,2.05-2.29,3.62-5.78,4.1-7.95.36-1.93.6-2.41,1.57-2.41.84,0,1.09.84,1.09,1.81,0,1.45-1.45,11.93-2.65,16.03-.6,2.05-1.09,2.65-3.13,3.5-4.82,1.93-13.98,2.77-21.7,2.77-16.51,0-30.38-3.62-41.35-13.14Z"/>
      <path class="cls-2" d="m232.51,73.56c0-17.48,12.29-40.14,44.48-40.14,26.76,0,43.39,14.83,43.39,38.33s-17.12,41.95-44.48,41.95c-30.86,0-43.39-21.94-43.39-40.14Zm72.08,1.93c0-22.66-13.62-36.64-30.74-36.64-11.81,0-25.67,6.27-25.67,31.58,0,21.09,12.05,37.73,32.07,37.73,7.47,0,24.35-3.5,24.35-32.67Z"/>
      <path class="cls-2" d="m353.18,82.6c0,13.14,0,19.65,2.29,21.58,1.81,1.57,5.91,2.17,14.11,2.17,5.66,0,9.76-.12,12.41-2.89,1.33-1.33,2.41-4.22,2.65-6.15.12-.96.36-1.57,1.2-1.57.72,0,.97,1.09.97,2.29s-.72,8.8-1.57,11.81c-.72,2.29-1.2,2.77-6.75,2.77-7.6,0-13.74-.12-19.05-.36-5.3-.12-9.77-.24-14.1-.24-1.21,0-3.5.12-6.03.12-2.53.12-5.18.24-7.35.24-1.32,0-2.05-.36-2.05-1.09,0-.48.36-1.09,1.69-1.09,1.57,0,2.77-.12,3.74-.36,2.17-.48,2.77-2.41,3.14-5.42.48-4.34.48-12.42.48-21.82v-18.08c0-15.55,0-18.44-.12-21.7-.24-3.5-1.2-4.58-4.58-5.54-.84-.24-2.17-.36-3.49-.36-1.2,0-1.81-.36-1.81-1.09s.72-.96,2.29-.96c4.94,0,11.69.24,14.59.24,2.53,0,11.21-.24,15.31-.24,1.57,0,2.29.24,2.29.96s-.6,1.09-1.93,1.09c-1.21,0-2.89.12-4.1.36-2.89.48-3.74,1.93-3.97,5.54-.24,3.26-.24,6.15-.24,21.7v18.08Z"/>
      <path class="cls-2" d="m410.92,85.73c0-5.54-.96-7.71-2.41-10.73-.72-1.57-15.19-24.11-18.93-29.53-2.65-3.74-4.82-6.15-6.87-7.23-1.33-.72-3.14-1.33-4.46-1.33-.84,0-1.57-.36-1.57-1.09s.72-.96,2.05-.96c1.81,0,9.76.24,13.26.24,2.29,0,7.23-.24,12.05-.24.96,0,1.57.24,1.57.96,0,.84-.72.84-2.41,1.33-.84.24-1.45.72-1.45,1.57s.48,2.05,1.33,3.5c1.93,3.13,15.79,27.12,17.6,30.01,1.33-2.41,14.22-24.35,15.79-27.48,1.09-2.29,1.57-4.1,1.57-5.43,0-.96-.48-1.93-2.29-2.29-.97-.24-1.93-.36-1.93-1.21,0-.72.6-.96,1.81-.96,3.49,0,7.23.24,10.37.24,2.29,0,9.28-.24,11.33-.24,1.2,0,1.93.24,1.93.84,0,.72-.84,1.2-2.05,1.2-1.09,0-3.01.48-4.58,1.21-2.29,1.09-3.26,2.05-5.54,4.82-3.5,4.1-18.68,28.45-20.61,32.78-1.57,3.74-1.33,6.87-1.33,10.25v8.2c0,1.69,0,5.91.24,10.25.24,3.01,1.2,4.94,4.34,5.42,1.57.24,3.86.36,5.3.36,1.2,0,1.81.6,1.81,1.09,0,.72-.84,1.09-2.29,1.09-6.63,0-13.74-.36-16.64-.36-2.65,0-9.76.36-13.74.36-1.45,0-2.29-.24-2.29-1.09,0-.48.48-1.09,1.69-1.09,1.45,0,2.77-.12,3.74-.36,2.17-.48,3.01-2.41,3.25-5.42.36-4.34.36-8.56.36-10.25v-8.44Z"/>
      <path class="cls-2" d="m463.6,111.04c-1.69-.72-2.05-1.21-2.05-3.5,0-5.54.48-11.93.6-13.62,0-1.57.48-2.65,1.32-2.65.97,0,1.09.96,1.09,1.69,0,1.33.36,3.5.97,5.3,2.29,7.6,10.25,10.12,16.88,10.12,9.16,0,14.71-5.78,14.71-13.02,0-4.46-1.09-8.92-10.49-14.46l-6.15-3.62c-12.54-7.35-16.63-14.22-16.63-23.26,0-12.54,12.05-20.61,26.76-20.61,6.87,0,12.29.96,15.07,1.69.97.24,1.45.6,1.45,1.33,0,1.33-.36,4.22-.36,12.29,0,2.17-.48,3.26-1.33,3.26-.72,0-1.09-.6-1.09-1.81,0-.96-.48-4.1-2.77-6.75-1.57-1.93-4.94-4.82-11.81-4.82-7.6,0-14.47,3.98-14.47,10.97,0,4.58,1.69,8.2,11.21,13.5l4.34,2.41c13.98,7.71,18.32,15.55,18.32,24.83,0,7.59-2.89,13.74-10.61,19.16-5.06,3.62-12.05,4.22-17.72,4.22-6.14,0-12.65-.6-17.24-2.65Z"/>
      <path class="cls-2" d="m530.86,64.51c0-15.55,0-18.44-.12-21.7-.24-3.5-1.2-4.58-4.58-5.54-.84-.24-2.65-.36-4.22-.36-1.09,0-1.81-.36-1.81-1.09s.84-.96,2.41-.96c5.54,0,12.29.24,15.31.24,3.37,0,26.88.12,28.93,0,1.93-.12,3.62-.48,4.46-.6.6-.12,1.2-.48,1.69-.48.6,0,.72.48.72.97,0,.72-.6,1.93-.85,6.63-.12,1.09-.36,5.54-.6,6.75-.12.48-.36,1.69-1.2,1.69-.72,0-.85-.48-.85-1.33,0-.72-.12-2.53-.72-3.74-.84-1.81-1.69-3.26-6.99-3.74-1.81-.24-14.46-.48-16.63-.48-.48,0-.72.36-.72.96v25.31c0,.6.12,1.09.72,1.09,2.41,0,16.15,0,18.56-.24,2.53-.24,4.1-.48,5.06-1.57.85-.72,1.21-1.33,1.69-1.33s.84.48.84,1.09-.24,2.29-.84,7.47c-.24,2.05-.48,6.15-.48,6.87,0,.84-.12,2.29-1.09,2.29-.72,0-.97-.36-.97-.84-.12-1.09-.12-2.41-.36-3.74-.6-2.05-1.93-3.62-5.91-3.98-1.93-.24-13.98-.48-16.63-.48-.48,0-.6.48-.6,1.09v8.2c0,3.5-.12,12.17,0,15.19.24,6.99,3.49,8.56,14.34,8.56,2.77,0,7.23-.12,10-1.33,2.65-1.21,3.86-3.37,4.58-7.59.24-1.09.48-1.57,1.2-1.57.84,0,.97,1.33.97,2.41,0,2.29-.85,9.28-1.45,11.33-.72,2.65-1.69,2.65-5.67,2.65-7.95,0-14.34-.12-19.53-.36-5.18-.12-9.16-.24-12.29-.24-1.21,0-3.5.12-6.03.12-2.53.12-5.18.24-7.35.24-1.32,0-2.05-.36-2.05-1.09,0-.48.36-1.09,1.69-1.09,1.57,0,2.77-.12,3.74-.36,2.17-.48,2.77-2.41,3.14-5.42.48-4.34.48-12.42.48-21.82v-18.08Z"/>
      <path class="cls-2" d="m594.51,64.51c0-15.55.12-18.44-.12-21.7-.24-3.61-1.2-4.58-4.58-5.54-.84-.24-2.65-.36-4.1-.36-1.2,0-1.81-.36-1.81-1.09s.72-.96,2.29-.96c5.67,0,12.78.24,15.91.24,2.65,0,9.77-.24,13.62-.24,1.57,0,2.29.24,2.29.96s-.6,1.09-1.69,1.09c-1.2,0-1.81.12-3.13.36-2.77.48-3.62,1.93-3.86,5.54-.24,3.26-.24,6.15-.24,21.7v14.35c0,14.95,2.89,20.73,8.08,24.83,4.7,3.74,9.77,4.1,13.38,4.1,4.58,0,10-1.33,14.22-5.42,5.91-5.55,6.14-14.46,6.14-24.95v-12.9c0-15.55-.12-18.44-.24-21.7-.24-3.5-1.09-4.58-4.46-5.54-.85-.24-2.65-.36-3.86-.36s-1.81-.36-1.81-1.09.72-.96,2.17-.96c5.43,0,12.54.24,12.65.24,1.21,0,8.32-.24,12.42-.24,1.45,0,2.17.24,2.17.96s-.6,1.09-1.81,1.09-1.81.12-3.13.36c-2.89.48-3.62,1.93-3.86,5.54-.12,3.26-.24,6.15-.24,21.7v10.97c0,11.45-1.21,23.5-10.13,30.86-7.47,6.27-15.55,7.35-22.42,7.35-5.54,0-16.51-.24-24.23-6.99-5.43-4.7-9.64-12.29-9.64-27.12v-15.07Z"/>
      <path class="cls-2" d="m683.72,111.04c-1.69-.72-2.05-1.21-2.05-3.5,0-5.54.48-11.93.6-13.62,0-1.57.48-2.65,1.32-2.65.97,0,1.09.96,1.09,1.69,0,1.33.36,3.5.97,5.3,2.29,7.6,10.25,10.12,16.88,10.12,9.16,0,14.71-5.78,14.71-13.02,0-4.46-1.09-8.92-10.49-14.46l-6.15-3.62c-12.54-7.35-16.63-14.22-16.63-23.26,0-12.54,12.05-20.61,26.76-20.61,6.87,0,12.29.96,15.07,1.69.97.24,1.45.6,1.45,1.33,0,1.33-.36,4.22-.36,12.29,0,2.17-.48,3.26-1.33,3.26-.72,0-1.09-.6-1.09-1.81,0-.96-.48-4.1-2.77-6.75-1.57-1.93-4.94-4.82-11.81-4.82-7.6,0-14.47,3.98-14.47,10.97,0,4.58,1.69,8.2,11.21,13.5l4.34,2.41c13.98,7.71,18.32,15.55,18.32,24.83,0,7.59-2.89,13.74-10.61,19.16-5.06,3.62-12.05,4.22-17.72,4.22-6.14,0-12.65-.6-17.24-2.65Z"/>
      <g>
        <path class="cls-4" d="m19.8,48.53c3.4,2.77,7.52,5.48,12.5,7.91,3.66-7.06,17.75-24.8,57.44-19.62l-3.55-13.63c-49.3-4.23-63.47,18.99-66.4,25.34Z"/>
        <path class="cls-1" d="m10.96,41.3c5.52-10.03,24.41-30.58,71.44-26.05L76.37.39S27.06-5.33,2.19,26.95c.89,2.6,3.28,8.21,8.77,14.35Z"/>
        <path class="cls-3" d="m100.37,71.71c-7.91.83-15.27,1.22-22.07,1.22C30.31,72.92,9.06,54.07,0,40.61v62.04s3.88,40.13,120.38,28.48l-20-59.42Z"/>
      </g>
    </g>
  </g>
</svg>