<?xml version="1.0" encoding="UTF-8"?>
<svg id="_Слой_1" data-name="Слой 1" xmlns="http://www.w3.org/2000/svg" xmlns:xlink="http://www.w3.org/1999/xlink" viewBox="0 0 1300 900">
  <defs>
    <style>
      .cls-1 {
        opacity: .07;
      }

      .cls-2 {
        fill: #007bfc;
      }

      .cls-3 {
        fill: #000;
      }

      @media (prefers-color-scheme: dark) { .cls-3 { fill: #fff } }
    </style>
  </defs>
  <g>
    <g>
      <path class="cls-3" d="m531.9,464.35c-7.85-6.89-9.93-15.86-9.93-23.62,0-5.45,1.68-14.9,9.37-21.94,5.76-5.29,13.37-8.49,25.3-8.49,4.97,0,7.93.32,11.61.8,3.04.4,5.61,1.12,8.01,1.36.88.08,1.2.48,1.2.96,0,.64-.24,1.6-.4,4.4-.16,2.64-.08,7.05-.24,8.65-.08,1.2-.24,1.84-.96,1.84-.64,0-.8-.64-.8-1.76-.08-2.48-1.12-5.29-3.12-7.37-2.64-2.8-8.89-4.97-16.26-4.97-6.97,0-11.53,1.76-15.05,4.97-5.85,5.36-7.37,12.97-7.37,20.74,0,19.06,14.49,28.51,25.23,28.51,7.13,0,11.45-.8,14.65-4.48,1.36-1.52,2.4-3.84,2.72-5.29.24-1.28.4-1.6,1.04-1.6.56,0,.72.56.72,1.2,0,.96-.96,7.93-1.76,10.65-.4,1.36-.72,1.76-2.08,2.32-3.21,1.28-9.29,1.84-14.41,1.84-10.97,0-20.18-2.4-27.47-8.73Z"/>
      <path class="cls-3" d="m584.68,446.17c0-11.61,8.17-26.67,29.55-26.67,17.78,0,28.83,9.85,28.83,25.47s-11.37,27.87-29.55,27.87c-20.5,0-28.83-14.57-28.83-26.67Zm47.89,1.28c0-15.06-9.05-24.34-20.42-24.34-7.85,0-17.06,4.16-17.06,20.98,0,14.01,8.01,25.07,21.3,25.07,4.96,0,16.18-2.32,16.18-21.7Z"/>
      <path class="cls-3" d="m664.85,452.18c0,8.73,0,13.05,1.52,14.33,1.2,1.04,3.92,1.44,9.37,1.44,3.76,0,6.49-.08,8.25-1.92.88-.88,1.6-2.8,1.76-4.08.08-.64.24-1.04.8-1.04.48,0,.64.72.64,1.52s-.48,5.85-1.04,7.85c-.48,1.52-.8,1.84-4.48,1.84-5.05,0-9.13-.08-12.65-.24-3.52-.08-6.49-.16-9.37-.16-.8,0-2.32.08-4.01.08-1.68.08-3.44.16-4.88.16-.88,0-1.36-.24-1.36-.72,0-.32.24-.72,1.12-.72,1.04,0,1.84-.08,2.48-.24,1.44-.32,1.84-1.6,2.08-3.6.32-2.88.32-8.25.32-14.5v-12.01c0-10.33,0-12.25-.08-14.41-.16-2.32-.8-3.04-3.04-3.68-.56-.16-1.44-.24-2.32-.24-.8,0-1.2-.24-1.2-.72s.48-.64,1.52-.64c3.28,0,7.77.16,9.69.16,1.68,0,7.45-.16,10.17-.16,1.04,0,1.52.16,1.52.64s-.4.72-1.28.72c-.8,0-1.92.08-2.73.24-1.92.32-2.48,1.28-2.64,3.68-.16,2.16-.16,4.08-.16,14.41v12.01Z"/>
      <path class="cls-3" d="m703.21,454.26c0-3.68-.64-5.13-1.6-7.13-.48-1.04-10.09-16.02-12.57-19.62-1.76-2.48-3.2-4.08-4.56-4.81-.88-.48-2.08-.88-2.97-.88-.56,0-1.04-.24-1.04-.72s.48-.64,1.36-.64c1.2,0,6.49.16,8.81.16,1.52,0,4.81-.16,8.01-.16.64,0,1.04.16,1.04.64,0,.56-.48.56-1.6.88-.56.16-.96.48-.96,1.04s.32,1.36.88,2.32c1.28,2.08,10.49,18.02,11.69,19.94.88-1.6,9.45-16.18,10.49-18.26.72-1.52,1.04-2.72,1.04-3.6,0-.64-.32-1.28-1.52-1.52-.64-.16-1.28-.24-1.28-.8,0-.48.4-.64,1.2-.64,2.32,0,4.8.16,6.89.16,1.52,0,6.17-.16,7.53-.16.8,0,1.28.16,1.28.56,0,.48-.56.8-1.36.8-.72,0-2,.32-3.04.8-1.52.72-2.16,1.36-3.68,3.2-2.32,2.72-12.41,18.9-13.69,21.78-1.04,2.48-.88,4.57-.88,6.81v5.45c0,1.12,0,3.92.16,6.81.16,2,.8,3.28,2.88,3.6,1.04.16,2.56.24,3.52.24.8,0,1.2.4,1.2.72,0,.48-.56.72-1.52.72-4.4,0-9.13-.24-11.05-.24-1.76,0-6.49.24-9.13.24-.96,0-1.52-.16-1.52-.72,0-.32.32-.72,1.12-.72.96,0,1.84-.08,2.48-.24,1.44-.32,2-1.6,2.16-3.6.24-2.88.24-5.69.24-6.81v-5.61Z"/>
      <path class="cls-3" d="m738.21,471.08c-1.12-.48-1.36-.8-1.36-2.32,0-3.68.32-7.93.4-9.05,0-1.04.32-1.76.88-1.76.64,0,.72.64.72,1.12,0,.88.24,2.32.64,3.52,1.52,5.05,6.81,6.73,11.21,6.73,6.09,0,9.77-3.84,9.77-8.65,0-2.96-.72-5.93-6.97-9.61l-4.08-2.4c-8.33-4.88-11.05-9.45-11.05-15.46,0-8.33,8.01-13.69,17.78-13.69,4.57,0,8.17.64,10.01,1.12.64.16.96.4.96.88,0,.88-.24,2.8-.24,8.17,0,1.44-.32,2.16-.88,2.16-.48,0-.72-.4-.72-1.2,0-.64-.32-2.72-1.84-4.48-1.04-1.28-3.28-3.2-7.85-3.2-5.05,0-9.61,2.64-9.61,7.29,0,3.04,1.12,5.45,7.45,8.97l2.88,1.6c9.29,5.13,12.17,10.33,12.17,16.5,0,5.04-1.92,9.13-7.05,12.73-3.36,2.4-8.01,2.8-11.77,2.8-4.08,0-8.41-.4-11.45-1.76Z"/>
      <path class="cls-3" d="m782.9,440.16c0-10.33,0-12.25-.08-14.41-.16-2.32-.8-3.04-3.04-3.68-.56-.16-1.76-.24-2.8-.24-.72,0-1.2-.24-1.2-.72s.56-.64,1.6-.64c3.68,0,8.17.16,10.17.16,2.24,0,17.86.08,19.22,0,1.28-.08,2.4-.32,2.96-.4.4-.08.8-.32,1.12-.32.4,0,.48.32.48.64,0,.48-.4,1.28-.56,4.4-.08.72-.24,3.68-.4,4.48-.08.32-.24,1.12-.8,1.12-.48,0-.56-.32-.56-.88,0-.48-.08-1.68-.48-2.48-.56-1.2-1.12-2.16-4.64-2.48-1.2-.16-9.61-.32-11.05-.32-.32,0-.48.24-.48.64v16.82c0,.4.08.72.48.72,1.6,0,10.73,0,12.33-.16,1.68-.16,2.73-.32,3.36-1.04.56-.48.8-.88,1.12-.88s.56.32.56.72-.16,1.52-.56,4.97c-.16,1.36-.32,4.08-.32,4.56,0,.56-.08,1.52-.72,1.52-.48,0-.64-.24-.64-.56-.08-.72-.08-1.6-.24-2.48-.4-1.36-1.28-2.4-3.92-2.64-1.28-.16-9.29-.32-11.05-.32-.32,0-.4.32-.4.72v5.45c0,2.32-.08,8.09,0,10.09.16,4.64,2.32,5.69,9.53,5.69,1.84,0,4.81-.08,6.65-.88,1.76-.8,2.56-2.24,3.04-5.04.16-.72.32-1.04.8-1.04.56,0,.64.88.64,1.6,0,1.52-.56,6.17-.96,7.53-.48,1.76-1.12,1.76-3.77,1.76-5.28,0-9.53-.08-12.97-.24-3.44-.08-6.09-.16-8.17-.16-.8,0-2.32.08-4.01.08-1.68.08-3.44.16-4.88.16-.88,0-1.36-.24-1.36-.72,0-.32.24-.72,1.12-.72,1.04,0,1.84-.08,2.48-.24,1.44-.32,1.84-1.6,2.08-3.6.32-2.88.32-8.25.32-14.5v-12.01Z"/>
      <path class="cls-3" d="m825.19,440.16c0-10.33.08-12.25-.08-14.41-.16-2.4-.8-3.04-3.04-3.68-.56-.16-1.76-.24-2.72-.24-.8,0-1.2-.24-1.2-.72s.48-.64,1.52-.64c3.77,0,8.49.16,10.57.16,1.76,0,6.49-.16,9.05-.16,1.04,0,1.52.16,1.52.64s-.4.72-1.12.72c-.8,0-1.2.08-2.08.24-1.84.32-2.4,1.28-2.56,3.68-.16,2.16-.16,4.08-.16,14.41v9.53c0,9.93,1.92,13.77,5.37,16.5,3.12,2.48,6.49,2.72,8.89,2.72,3.04,0,6.65-.88,9.45-3.6,3.92-3.68,4.08-9.61,4.08-16.58v-8.57c0-10.33-.08-12.25-.16-14.41-.16-2.32-.72-3.04-2.96-3.68-.56-.16-1.76-.24-2.56-.24s-1.2-.24-1.2-.72.48-.64,1.44-.64c3.6,0,8.33.16,8.41.16.8,0,5.53-.16,8.25-.16.96,0,1.44.16,1.44.64s-.4.72-1.2.72-1.2.08-2.08.24c-1.92.32-2.4,1.28-2.56,3.68-.08,2.16-.16,4.08-.16,14.41v7.29c0,7.61-.8,15.62-6.73,20.5-4.96,4.16-10.33,4.88-14.9,4.88-3.68,0-10.97-.16-16.1-4.64-3.6-3.12-6.41-8.17-6.41-18.02v-10.01Z"/>
      <path class="cls-3" d="m884.46,471.08c-1.12-.48-1.36-.8-1.36-2.32,0-3.68.32-7.93.4-9.05,0-1.04.32-1.76.88-1.76.64,0,.72.64.72,1.12,0,.88.24,2.32.64,3.52,1.52,5.05,6.81,6.73,11.21,6.73,6.09,0,9.77-3.84,9.77-8.65,0-2.96-.72-5.93-6.97-9.61l-4.08-2.4c-8.33-4.88-11.05-9.45-11.05-15.46,0-8.33,8.01-13.69,17.78-13.69,4.57,0,8.17.64,10.01,1.12.64.16.96.4.96.88,0,.88-.24,2.8-.24,8.17,0,1.44-.32,2.16-.88,2.16-.48,0-.72-.4-.72-1.2,0-.64-.32-2.72-1.84-4.48-1.04-1.28-3.28-3.2-7.85-3.2-5.05,0-9.61,2.64-9.61,7.29,0,3.04,1.12,5.45,7.45,8.97l2.88,1.6c9.29,5.13,12.17,10.33,12.17,16.5,0,5.04-1.92,9.13-7.05,12.73-3.36,2.4-8.01,2.8-11.77,2.8-4.08,0-8.41-.4-11.45-1.76Z"/>
    </g>
    <g>
      <path class="cls-2" d="m480.35,416.59c-4.46-11.73-15.69-19.61-28.55-19.61-7.97,0-15.51,3.15-21.12,8.5l4.2,12.5c3.41-6.04,9.92-9.87,16.91-9.87,9.05,0,16.83,6.14,18.91,14.92l.98,4.1,4.21.17c10.46.41,18.66,8.94,18.66,19.41s-8.72,19.44-19.44,19.44h-24.03l3.75,11.12h20.28c16.85,0,30.56-13.7,30.56-30.56,0-15.11-10.84-27.64-25.33-30.11Z"/>
      <g>
        <path class="cls-2" d="m393.58,433.17c1.85,1.51,4.1,2.99,6.82,4.31,2-3.85,9.68-13.52,31.32-10.7l-1.93-7.43c-26.88-2.31-34.6,10.35-36.2,13.81Z"/>
        <path class="cls-2" d="m388.76,429.22c3.01-5.47,13.31-16.67,38.95-14.2l-3.29-8.1s-26.88-3.12-40.44,14.48c.49,1.42,1.79,4.48,4.78,7.82Z"/>
        <path class="cls-2" d="m437.51,445.8c-4.31.45-8.33.66-12.03.66-26.17,0-37.75-10.28-42.69-17.62v33.82s2.12,21.88,65.63,15.52l-10.9-32.39Z"/>
      </g>
    </g>
    <g>
      <path class="cls-3" d="m806.35,503.02c-3.15,0-5.77-1.05-7.86-3.16-2.07-2.09-3.1-4.69-3.1-7.8s1.03-5.73,3.1-7.8c2.09-2.11,4.71-3.16,7.86-3.16,1.91,0,3.67.45,5.29,1.34,1.62.89,2.88,2.1,3.78,3.63l-3.58,2.08c-.52-.94-1.26-1.68-2.23-2.21-.96-.53-2.05-.8-3.25-.8-2.05,0-3.7.64-4.97,1.93-1.25,1.31-1.87,2.97-1.87,5s.62,3.67,1.87,4.97c1.26,1.28,2.92,1.93,4.97,1.93,1.2,0,2.29-.27,3.27-.8.97-.53,1.71-1.26,2.21-2.18l3.58,2.08c-.9,1.53-2.16,2.74-3.78,3.63-1.62.89-3.38,1.34-5.29,1.34Z"/>
      <path class="cls-3" d="m828.16,481.52v17.11h8.04v3.98h-12.2v-21.08h4.16Z"/>
      <path class="cls-3" d="m861.01,499.86c-2.13,2.11-4.72,3.16-7.77,3.16s-5.64-1.05-7.77-3.16c-2.11-2.15-3.16-4.75-3.16-7.8s1.05-5.66,3.16-7.77c2.13-2.13,4.72-3.19,7.77-3.19s5.64,1.06,7.77,3.19c2.13,2.11,3.19,4.7,3.19,7.77s-1.06,5.67-3.19,7.8Zm-12.62-2.83c1.29,1.28,2.9,1.93,4.85,1.93s3.56-.64,4.85-1.93c1.3-1.3,1.96-2.96,1.96-4.97s-.65-3.66-1.96-4.97c-1.31-1.3-2.92-1.96-4.85-1.96s-3.54.65-4.85,1.96c-1.3,1.31-1.96,2.96-1.96,4.97s.65,3.67,1.96,4.97Z"/>
      <path class="cls-3" d="m880.86,503.02c-2.35,0-4.28-.66-5.78-1.99s-2.26-3.1-2.26-5.33v-14.19h4.13v13.85c0,1.13.33,2,.98,2.64.65.63,1.63.95,2.94.95s2.28-.32,2.94-.95c.65-.63.98-1.51.98-2.64v-13.85h4.16v14.19c0,2.23-.75,4.01-2.26,5.33s-3.44,1.99-5.81,1.99Z"/>
      <path class="cls-3" d="m898.69,481.52h8.37c2.89,0,5.3,1.01,7.23,3.04,1.95,2.01,2.92,4.51,2.92,7.5s-.97,5.49-2.92,7.5c-1.93,2.03-4.34,3.04-7.23,3.04h-8.37v-21.08Zm4.16,17.11h4.22c1.83,0,3.31-.6,4.46-1.81,1.14-1.24,1.72-2.83,1.72-4.76s-.57-3.52-1.72-4.73c-1.14-1.22-2.63-1.84-4.46-1.84h-4.22v13.13Z"/>
    </g>
  </g>
</svg>
